<?xml version="1.0" encoding="UTF-8" standalone="no"?>
<!-- Created with Inkscape (http://www.inkscape.org/) -->

<svg
   width="255.99998"
   height="256.00281"
   viewBox="0 0 67.733327 67.734079"
   version="1.1"
   id="svg5"
   inkscape:version="1.1 (c68e22c387, 2021-05-23)"
   sodipodi:docname="Notes.svg"
   xmlns:inkscape="http://www.inkscape.org/namespaces/inkscape"
   xmlns:sodipodi="http://sodipodi.sourceforge.net/DTD/sodipodi-0.dtd"
   xmlns="http://www.w3.org/2000/svg"
   xmlns:svg="http://www.w3.org/2000/svg">
  <sodipodi:namedview
     id="namedview7"
     pagecolor="#222222"
     bordercolor="#666666"
     borderopacity="1.0"
     inkscape:pageshadow="2"
     inkscape:pageopacity="0"
     inkscape:pagecheckerboard="0"
     inkscape:document-units="mm"
     showgrid="false"
     units="px"
     inkscape:showpageshadow="false"
     borderlayer="true"
     inkscape:zoom="1.8101934"
     inkscape:cx="207.16019"
     inkscape:cy="73.196599"
     inkscape:window-width="5120"
     inkscape:window-height="1377"
     inkscape:window-x="1912"
     inkscape:window-y="-8"
     inkscape:window-maximized="1"
     inkscape:current-layer="layer1" />
  <defs
     id="defs2">
    <pattern
       id="EMFhbasepattern"
       patternUnits="userSpaceOnUse"
       width="6"
       height="6"
       x="0"
       y="0" />
  </defs>
  <g
     inkscape:label="Layer 1"
     inkscape:groupmode="layer"
     id="layer1"
     transform="translate(-238.46691,-112.29666)">
    <path
       id="path963"
       style="fill:#ed7e48;fill-opacity:1;stroke-width:4.72702;stroke-linecap:round;stroke-linejoin:bevel"
       d="M 128.00195 0 C 57.308536 0 0 57.309178 0 128.00195 C 0 198.69439 57.308536 256.00195 128.00195 256.00195 C 198.69435 256.00195 256 198.69439 256 128.00195 C 256 57.309178 198.69435 0 128.00195 0 z M 128 60.837891 C 164.98324 60.837891 195.16406 91.018822 195.16406 128.00195 C 195.16406 164.98512 164.98324 195.16602 128 195.16602 C 91.016756 195.16602 60.835938 164.98512 60.835938 128.00195 C 60.835938 91.018822 91.016756 60.837891 128 60.837891 z M 128 79.509766 C 101.10847 79.509766 79.507812 101.11054 79.507812 128.00195 C 79.507812 154.89341 101.10847 176.49219 128 176.49219 C 154.89153 176.49219 176.49219 154.89341 176.49219 128.00195 C 176.49219 101.11054 154.89153 79.509766 128 79.509766 z M 128 94.505859 L 128 94.507812 C 130.37751 94.507812 132.67617 95.088207 134.40039 96.630859 C 136.11977 98.169316 136.92969 100.51277 136.92969 102.80664 C 136.92969 105.06797 136.11063 107.36452 134.4668 108.92188 L 134.43164 108.95312 L 134.40234 108.97852 C 132.67816 110.52121 130.3795 111.11133 128.00195 111.11133 C 125.66284 111.11133 123.39336 110.50285 121.66211 109.03125 L 121.59961 108.97852 L 121.53516 108.92188 C 119.89133 107.36452 119.07227 105.06797 119.07227 102.80664 C 119.07227 100.51281 119.88019 98.169316 121.59961 96.630859 L 121.63281 96.607422 L 121.66016 96.578125 C 123.39099 95.106906 125.66153 94.5062 128 94.505859 z M 128.00195 116.92773 C 130.1632 116.92773 132.37202 117.73264 133.85352 119.3457 C 135.40456 120.94441 136.07031 123.15792 136.07031 125.38867 L 136.07031 154.25586 C 136.07031 156.45252 135.47475 158.6217 134.02734 160.25 C 132.52536 161.93979 130.22976 162.7168 128.00195 162.7168 C 125.80646 162.7168 123.53727 161.91571 122.05664 160.25 C 120.60927 158.6217 120.01172 156.45252 120.01172 154.25586 L 120.01172 125.38867 C 120.01172 123.17243 120.59398 120.99081 122.0957 119.37109 C 123.57686 117.72847 125.82135 116.92773 128.00195 116.92773 z "
       transform="matrix(0.26458333,0,0,0.26458333,238.46691,112.29666)" />
    <text
       xml:space="preserve"
       style="font-weight:600;font-size:10.5833px;line-height:1.25;font-family:Nunito;-inkscape-font-specification:'Nunito Semi-Bold';stroke-width:0.264583"
       x="45.69231"
       y="104.59255"
       id="text1574"><tspan
         sodipodi:role="line"
         id="tspan1572"
         style="stroke-width:0.264583"
         x="45.69231"
         y="104.59255" /></text>
    <g
       id="g8193"
       transform="translate(-94.018044,-5.1349406)" />
  </g>
</svg>
